<?xml version="1.0" standalone="no"?>
<!DOCTYPE svg PUBLIC "-//W3C//DTD SVG 20010904//EN"
 "http://www.w3.org/TR/2001/REC-SVG-20010904/DTD/svg10.dtd">
<svg version="1.0" xmlns="http://www.w3.org/2000/svg"
 width="512.000000pt" height="512.000000pt" viewBox="0 0 512.000000 512.000000"
 preserveAspectRatio="xMidYMid meet">
<metadata>
Created by potrace 1.14, written by Peter Selinger 2001-2017
</metadata>
<g transform="translate(0.000000,512.000000) scale(0.100000,-0.100000)"
fill="#000000" stroke="none">
<path d="M2335 5109 c-607 -52 -1179 -326 -1610 -770 -430 -443 -671 -987
-717 -1614 -20 -282 14 -597 97 -883 192 -670 680 -1254 1310 -1569 547 -274
1181 -345 1770 -197 838 210 1531 849 1800 1660 106 321 150 666 127 989 -46
626 -288 1172 -717 1614 -540 557 -1288 836 -2060 770z m-325 -859 c302 -38
574 -208 735 -463 34 -54 53 -76 64 -72 107 32 156 39 281 39 148 0 230 -16
355 -73 168 -76 324 -229 412 -406 86 -171 111 -405 63 -586 -15 -53 -9 -65
34 -73 53 -10 184 -79 245 -130 283 -234 348 -648 150 -953 -63 -96 -182 -202
-281 -251 -169 -83 -53 -77 -1498 -77 l-1285 0 -75 23 c-320 100 -520 368
-520 696 0 124 19 206 70 311 67 139 184 260 313 326 l57 29 -54 78 c-136 195
-194 393 -184 630 7 147 34 255 97 387 58 121 98 177 193 273 222 224 521 329
828 292z"/>
</g>
</svg>
